# Blender v2.93.1 OBJ File: ''
# www.blender.org
mtllib ballgun.mtl
o Cube
v 1.000000 0.026475 0.068325
v 0.969458 0.026475 0.443894
v 1.000000 -1.000000 0.413352
v 0.681716 0.026475 0.068325
v 0.969458 0.026475 0.470689
v 0.712258 0.026475 0.443894
v 0.681716 -1.000000 0.413352
v 0.712258 0.026475 0.470689
v 0.681716 0.026475 -0.733315
v 1.000000 0.026475 -0.733315
v 1.000000 -0.304142 -0.733315
v 0.681716 -0.304142 -0.733315
v 0.917709 -0.211162 -0.915094
v 0.681716 0.026475 -0.782419
v 1.000000 0.026475 -0.782419
v 0.764007 -0.211162 -0.915094
v 1.000000 -0.304142 -0.782419
v 0.764007 -0.066505 -0.915094
v 0.917709 -0.066505 -0.915094
v 0.681716 -0.304142 -0.782419
v 0.949314 -0.949314 0.068325
v 1.000000 -1.000000 0.119011
v 0.732403 -0.949314 0.068325
v 0.681716 -1.000000 0.119011
v 0.949314 -0.354829 0.068325
v 1.000000 -0.304142 0.068325
v 0.681716 -0.304142 0.068325
v 0.732403 -0.354829 0.068325
v 0.965259 -0.054042 0.466489
v 1.000000 -0.019301 0.501230
v 0.716457 -0.054042 0.448093
v 0.681716 -0.054042 0.413352
v 0.965259 -0.054042 0.448093
v 1.000000 -0.054042 0.413352
v 0.716457 -0.054042 0.466489
v 0.681716 -0.019301 0.501230
v 1.000000 0.026475 0.501230
v 1.000000 0.026475 0.413352
v 0.681716 0.026475 0.413352
v 0.681716 0.026475 0.501230
v 0.969458 0.326551 0.470689
v 0.969458 0.326551 0.443894
v 0.712258 0.326551 0.443894
v 0.712258 0.326551 0.470689
v 0.952085 0.026475 0.504908
v 0.695048 0.026475 0.495750
v 0.952085 0.326551 0.504908
v 0.695048 0.326551 0.495750
v 0.933504 0.026475 0.538486
v 0.676956 0.026475 0.520183
v 0.933504 0.326551 0.538486
v 0.676956 0.326551 0.520183
v 0.913739 0.026475 0.571382
v 0.658006 0.026475 0.543956
v 0.913739 0.326551 0.571382
v 0.658006 0.326551 0.543956
v 0.892816 0.026475 0.603553
v 0.638221 0.026475 0.567039
v 0.892816 0.326551 0.603553
v 0.638221 0.326551 0.567039
v 0.870760 0.026475 0.634959
v 0.617627 0.026475 0.589403
v 0.870760 0.326551 0.634959
v 0.617627 0.326551 0.589403
v 0.847601 0.026475 0.665560
v 0.596250 0.026475 0.611020
v 0.847601 0.326551 0.665560
v 0.596250 0.326551 0.611020
v 0.823366 0.026475 0.695317
v 0.574116 0.026475 0.631862
v 0.823366 0.326551 0.695317
v 0.574116 0.326551 0.631862
v 0.798087 0.026475 0.724192
v 0.551255 0.026475 0.651903
v 0.798087 0.326551 0.724192
v 0.551255 0.326551 0.651903
v 0.771796 0.026475 0.752148
v 0.527695 0.026475 0.671117
v 0.771796 0.326551 0.752148
v 0.527695 0.326551 0.671117
v 0.744527 0.026475 0.779151
v 0.503465 0.026475 0.689480
v 0.744527 0.326551 0.779151
v 0.503465 0.326551 0.689480
v 0.716313 0.026475 0.805166
v 0.478597 0.026475 0.706968
v 0.716313 0.326551 0.805166
v 0.478597 0.326551 0.706968
v 0.687191 0.026475 0.830159
v 0.453122 0.026475 0.723560
v 0.687191 0.326551 0.830159
v 0.453122 0.326551 0.723560
v 0.856618 -0.135556 -0.883973
v 0.825098 -0.118552 -0.883973
v 0.856618 -0.142111 -0.883973
v 0.825098 -0.159115 -0.883973
v 0.750065 -0.225653 -1.075849
v 0.931652 -0.225653 -1.075849
v 0.750065 -0.052014 -1.075849
v 0.931652 -0.052014 -1.075849
v 0.840858 -0.101547 -0.883973
v 0.809739 -0.138833 -0.883973
v 0.840858 -0.176119 -0.883973
v 0.840858 -0.247096 -0.915094
v 0.742310 -0.138833 -0.908869
v 0.955288 -0.138833 -0.915094
v 0.840858 -0.030571 -0.915094
v 0.786915 -0.151606 -0.883973
v 0.871404 -0.164857 -0.883973
v 0.786915 -0.126061 -0.883973
v 0.871404 -0.112810 -0.883973
v 0.840858 -0.237631 -1.086222
v 0.737538 -0.138833 -1.086222
v 0.944178 -0.138833 -1.086222
v 0.840858 -0.040036 -1.086222
v 0.944178 -0.237631 -1.000658
v 0.944178 -0.040036 -1.000658
v 0.737538 -0.237631 -1.000658
v 0.737538 -0.040036 -1.000658
v 0.699959 -0.138833 -1.000658
v 0.840858 -0.004102 -1.000658
v 0.840858 -0.273565 -1.000658
v 0.840858 -0.138833 -1.117343
v 0.840858 -0.103345 -0.883973
v 0.882513 -0.138833 -0.883973
v 0.840858 -0.174322 -0.883973
v 0.981757 -0.138833 -1.000658
v 0.840858 -0.075078 -0.883973
v 0.783270 -0.075078 -0.883973
v 0.898446 -0.202589 -0.883973
v 0.898446 -0.075078 -0.883973
v 0.783270 -0.138833 -0.883973
v 0.783270 -0.202589 -0.883973
v 0.840858 -0.202589 -0.883973
vt 0.625000 0.500000
vt 0.875000 0.500000
vt 0.875000 0.750000
vt 0.625000 0.750000
vt 0.553934 0.750000
vt 0.625000 0.750000
vt 0.625000 1.000000
vt 0.553934 1.000000
vt 0.625000 0.000000
vt 0.500000 0.000000
vt 0.553934 0.000000
vt 0.625000 0.000000
vt 0.625000 0.250000
vt 0.500000 0.250000
vt 0.500000 0.500000
vt 0.500000 0.250000
vt 0.500000 0.500000
vt 0.375000 0.750000
vt 0.500000 0.750000
vt 0.500000 1.000000
vt 0.375000 1.000000
vt 0.125000 0.536726
vt 0.375000 0.536726
vt 0.125000 0.750000
vt 0.625000 0.500000
vt 0.500000 0.500000
vt 0.625000 0.500000
vt 0.625000 0.250000
vt 0.875000 0.500000
vt 0.625000 0.250000
vt 0.500000 0.250000
vt 0.562500 0.485671
vt 0.511561 0.485671
vt 0.511561 0.485671
vt 0.562500 0.485671
vt 0.586605 0.420233
vt 0.586605 0.375000
vt 0.586605 0.329767
vt 0.538396 0.420233
vt 0.562500 0.329767
vt 0.538395 0.329767
vt 0.538396 0.375000
vt 0.875000 0.500000
vt 0.375000 0.500000
vt 0.375000 0.250000
vt 0.384105 0.289812
vt 0.384105 0.460188
vt 0.490895 0.460188
vt 0.490895 0.289812
vt 0.375000 0.213274
vt 0.851011 0.750000
vt 0.851011 0.750000
vt 0.851011 0.750000
vt 0.851011 0.750000
vt 0.375000 0.000000
vt 0.500000 0.972712
vt 0.500000 0.777288
vt 0.500000 0.777288
vt 0.500000 0.972712
vt 0.500000 1.000000
vt 0.648989 0.750000
vt 0.648989 0.750000
vt 0.851011 0.750000
vt 0.875000 0.750000
vt 0.648989 0.750000
vt 0.851011 0.750000
vt 0.648989 0.750000
vt 0.851011 0.750000
vt 0.851011 0.750000
vt 0.648989 0.750000
vt 0.648989 0.750000
vt 0.648989 0.750000
vt 0.648989 0.750000
vt 0.648989 0.750000
vt 0.648989 0.750000
vt 0.851011 0.750000
vt 0.851011 0.750000
vt 0.851011 0.750000
vt 0.851011 0.750000
vt 0.648989 0.750000
vt 0.851011 0.750000
vt 0.648989 0.750000
vt 0.648989 0.750000
vt 0.648989 0.750000
vt 0.648989 0.750000
vt 0.648989 0.750000
vt 0.851011 0.750000
vt 0.851011 0.750000
vt 0.851011 0.750000
vt 0.851011 0.750000
vt 0.851011 0.750000
vt 0.648989 0.750000
vt 0.648989 0.750000
vt 0.648989 0.750000
vt 0.648989 0.750000
vt 0.648989 0.750000
vt 0.648989 0.750000
vt 0.851011 0.750000
vt 0.851011 0.750000
vt 0.851011 0.750000
vt 0.851011 0.750000
vt 0.851011 0.750000
vt 0.851011 0.750000
vt 0.648989 0.750000
vt 0.648989 0.750000
vt 0.648989 0.750000
vt 0.648989 0.750000
vt 0.851011 0.750000
vt 0.648989 0.750000
vt 0.851011 0.750000
vt 0.851011 0.750000
vt 0.648989 0.750000
vt 0.851011 0.750000
vt 0.549083 0.375000
vt 0.549083 0.407719
vt 0.586605 0.329767
vt 0.586605 0.375000
vt 0.613439 0.264329
vt 0.562500 0.264329
vt 0.575917 0.342281
vt 0.562500 0.407719
vt 0.575917 0.407719
vt 0.538395 0.329767
vt 0.562500 0.329767
vt 0.575917 0.375000
vt 0.538396 0.420233
vt 0.538396 0.375000
vt 0.562500 0.375000
vt 0.511561 0.375000
vt 0.511561 0.264329
vt 0.562500 0.264329
vt 0.511561 0.375000
vt 0.511561 0.264329
vt 0.613439 0.375000
vt 0.613439 0.485671
vt 0.613439 0.485671
vt 0.613439 0.375000
vt 0.562500 0.264329
vt 0.613439 0.264329
vt 0.613439 0.264329
vt 0.511561 0.264329
vt 0.613439 0.375000
vt 0.613439 0.485671
vt 0.511561 0.485671
vt 0.511561 0.375000
vt 0.562500 0.485671
vt 0.549083 0.342281
vt 0.586605 0.420233
vn 0.0000 1.0000 0.0000
vn 0.0000 0.0000 1.0000
vn -1.0000 0.0000 0.0000
vn 0.0000 -1.0000 0.0000
vn 1.0000 0.0000 0.0000
vn 0.9151 -0.2640 -0.3049
vn 0.0000 0.7071 -0.7071
vn 0.7071 0.0000 -0.7071
vn -0.7071 0.0000 -0.7071
vn 0.0000 -0.7071 -0.7071
vn 0.4469 -0.0351 -0.8939
vn -0.4469 -0.0351 -0.8939
vn 0.0000 0.0000 -1.0000
vn -0.8243 0.0000 -0.5661
vn -0.4292 -0.8585 0.2806
vn 0.4292 -0.8585 0.2806
vn 0.0000 -0.7071 0.7071
vn -0.8037 0.0000 -0.5951
vn 0.8917 0.0000 0.4527
vn 0.8572 0.0000 0.5150
vn 0.8750 0.0000 0.4842
vn -0.7593 0.0000 -0.6508
vn -0.7820 0.0000 -0.6233
vn 0.8383 0.0000 0.5452
vn 0.7974 0.0000 0.6035
vn 0.8184 0.0000 0.5747
vn -0.7356 0.0000 -0.6774
vn -0.6855 0.0000 -0.7280
vn -0.7110 0.0000 -0.7032
vn 0.7524 0.0000 0.6587
vn 0.7754 0.0000 0.6315
vn 0.7285 0.0000 0.6851
vn -0.6592 0.0000 -0.7520
vn -0.6040 0.0000 -0.7970
vn -0.6320 0.0000 -0.7750
vn 0.6779 0.0000 0.7352
vn 0.7036 0.0000 0.7106
vn -0.5752 0.0000 -0.8180
vn -0.4145 0.0000 0.9101
vn -0.5458 0.0000 -0.8379
vn 0.6513 0.0000 0.7588
vn -0.5235 0.2277 0.8211
vn -0.2170 -0.2269 -0.9494
vn -0.2438 -0.9241 -0.2944
vn 0.2438 0.9241 -0.2944
vn -0.9151 0.2640 -0.3049
vn -0.9151 -0.2640 -0.3049
vn -0.8681 -0.3147 0.3838
vn -0.8681 0.3147 0.3838
vn -0.2438 0.9241 -0.2944
vn -0.3503 0.8781 0.3258
vn 0.3503 0.8781 0.3258
vn 0.2438 -0.9241 -0.2944
vn 0.3503 -0.8781 0.3258
vn -0.3503 -0.8781 0.3258
vn -0.2170 0.2269 -0.9494
vn 0.2170 0.2269 -0.9494
vn 0.2170 -0.2269 -0.9494
vn 0.1706 0.4035 0.8989
vn -0.1766 0.3937 0.9021
vn 0.3937 -0.1949 0.8983
vn 0.3937 0.1949 0.8983
vn -0.4874 0.0000 0.8732
vn -0.5235 -0.2277 0.8211
vn -0.1766 -0.3937 0.9021
vn 0.1706 -0.4035 0.8989
vn 0.9151 0.2640 -0.3049
vn 0.8654 0.3801 0.3265
vn 0.8654 -0.3801 0.3265
usemtl Material
s off
f 1/1/1 4/2/1 39/3/1 38/4/1
f 30/5/2 37/6/2 40/7/2 36/8/2
f 39/9/3 32/10/3 36/11/3 40/12/3
f 32/10/3 39/9/3 4/13/3 27/14/3
f 26/15/4 27/14/4 12/16/4 11/17/4
f 3/18/2 34/19/2 32/20/2 7/21/2
f 26/15/5 1/1/5 38/4/5 34/19/5
f 24/22/4 22/23/4 3/18/4 7/24/4
f 1/1/5 26/15/5 11/17/5 10/25/5
f 22/23/5 26/15/5 34/19/5 3/18/5
f 10/25/5 11/17/5 17/26/5 15/27/5
f 27/14/3 4/13/3 9/28/3 12/16/3
f 4/2/1 1/1/1 10/25/1 9/29/1
f 12/16/3 9/28/3 14/30/3 20/31/3
f 127/32/6 116/33/6 98/34/6 114/35/6
f 11/17/4 12/16/4 20/31/4 17/26/4
f 14/30/7 15/27/7 131/36/7 128/37/7 129/38/7
f 15/27/8 17/26/8 130/39/8 131/36/8
f 129/38/9 132/40/9 133/41/9 20/31/9 14/30/9
f 133/41/10 134/42/10 130/39/10 17/26/10 20/31/10
f 9/29/1 10/25/1 15/27/1 14/43/1
f 22/44/10 24/45/10 23/46/10 21/47/10
f 26/15/11 22/23/11 21/47/11 25/48/11
f 28/49/12 23/46/12 24/50/12 27/14/12
f 27/14/13 26/15/13 25/48/13 28/49/13
f 23/46/13 28/49/13 25/48/13 21/47/13
f 44/51/14 8/52/14 46/53/14 48/54/14
f 7/55/3 32/10/3 27/14/3 24/50/3
f 31/56/4 33/57/4 29/58/4 35/59/4
f 36/60/15 32/20/15 31/56/15 35/59/15
f 34/19/16 30/5/16 29/58/16 33/57/16
f 33/57/4 31/56/4 32/20/4 34/19/4
f 30/5/17 36/8/17 35/59/17 29/58/17
f 34/19/5 38/4/5 37/6/5 30/5/5
f 2/61/1 5/62/1 37/6/1 38/4/1
f 6/63/1 2/61/1 38/4/1 39/3/1
f 8/52/1 6/63/1 39/3/1 40/64/1
f 5/62/1 8/52/1 40/64/1 37/6/1
f 42/65/1 43/66/1 44/51/1 41/67/1
f 2/61/13 6/63/13 43/66/13 42/65/13
f 6/63/3 8/52/3 44/51/3 43/66/3
f 5/62/5 2/61/5 42/65/5 41/67/5
f 48/54/18 46/53/18 50/68/18 52/69/18
f 41/67/1 44/51/1 48/54/1 47/70/1
f 8/52/4 5/62/4 45/71/4 46/53/4
f 5/62/19 41/67/19 47/70/19 45/71/19
f 49/72/20 51/73/20 55/74/20 53/75/20
f 47/70/1 48/54/1 52/69/1 51/73/1
f 45/71/21 47/70/21 51/73/21 49/72/21
f 46/53/4 45/71/4 49/72/4 50/68/4
f 56/76/22 54/77/22 58/78/22 60/79/22
f 50/68/4 49/72/4 53/75/4 54/77/4
f 52/69/23 50/68/23 54/77/23 56/76/23
f 51/73/1 52/69/1 56/76/1 55/74/1
f 59/80/1 60/79/1 64/81/1 63/82/1
f 55/74/1 56/76/1 60/79/1 59/80/1
f 53/75/24 55/74/24 59/80/24 57/83/24
f 54/77/4 53/75/4 57/83/4 58/78/4
f 61/84/25 63/82/25 67/85/25 65/86/25
f 57/83/26 59/80/26 63/82/26 61/84/26
f 58/78/4 57/83/4 61/84/4 62/87/4
f 60/79/27 58/78/27 62/87/27 64/81/27
f 68/88/28 66/89/28 70/90/28 72/91/28
f 62/87/4 61/84/4 65/86/4 66/89/4
f 64/81/29 62/87/29 66/89/29 68/88/29
f 63/82/1 64/81/1 68/88/1 67/85/1
f 69/92/30 71/93/30 75/94/30 73/95/30
f 67/85/1 68/88/1 72/91/1 71/93/1
f 65/86/31 67/85/31 71/93/31 69/92/31
f 66/89/4 65/86/4 69/92/4 70/90/4
f 73/95/32 75/94/32 79/96/32 77/97/32
f 70/90/4 69/92/4 73/95/4 74/98/4
f 72/91/33 70/90/33 74/98/33 76/99/33
f 71/93/1 72/91/1 76/99/1 75/94/1
f 80/100/34 78/101/34 82/102/34 84/103/34
f 74/98/4 73/95/4 77/97/4 78/101/4
f 76/99/35 74/98/35 78/101/35 80/100/35
f 75/94/1 76/99/1 80/100/1 79/96/1
f 81/104/36 83/105/36 87/106/36 85/107/36
f 79/96/1 80/100/1 84/103/1 83/105/1
f 77/97/37 79/96/37 83/105/37 81/104/37
f 78/101/4 77/97/4 81/104/4 82/102/4
f 86/108/4 85/107/4 89/109/4 90/110/4
f 82/102/4 81/104/4 85/107/4 86/108/4
f 84/103/38 82/102/38 86/108/38 88/111/38
f 83/105/1 84/103/1 88/111/1 87/106/1
f 90/110/39 89/109/39 91/112/39 92/113/39
f 88/111/40 86/108/40 90/110/40 92/113/40
f 87/106/1 88/111/1 92/113/1 91/112/1
f 85/107/41 87/106/41 91/112/41 89/109/41
f 126/114/2 109/115/2 94/116/2 101/117/2
f 18/118/42 105/119/42 110/120/42
f 125/121/2 111/122/2 96/123/2 102/124/2
f 124/125/2 110/120/2 95/126/2 103/127/2
f 123/128/43 112/129/43 97/130/43 113/131/43
f 122/132/44 118/133/44 97/130/44 112/129/44
f 121/134/45 117/135/45 100/136/45 115/137/45
f 120/138/46 119/139/46 99/140/46 113/131/46
f 118/133/47 120/138/47 113/131/47 97/130/47
f 16/141/48 105/119/48 120/138/48 118/133/48
f 105/119/49 18/118/49 119/139/49 120/138/49
f 119/139/50 121/134/50 115/137/50 99/140/50
f 18/118/51 107/142/51 121/134/51 119/139/51
f 107/142/52 19/143/52 117/135/52 121/134/52
f 116/33/53 122/132/53 112/129/53 98/34/53
f 13/144/54 104/145/54 122/132/54 116/33/54
f 104/145/55 16/141/55 118/133/55 122/132/55
f 115/137/56 123/128/56 113/131/56 99/140/56
f 100/136/57 114/35/57 123/128/57 115/137/57
f 114/35/58 98/34/58 112/129/58 123/128/58
f 111/122/2 124/125/2 103/127/2 96/123/2
f 19/143/59 107/142/59 124/125/59 111/122/59
f 107/142/60 18/118/60 110/120/60 124/125/60
f 109/115/2 125/121/2 102/124/2 94/116/2
f 13/144/61 106/146/61 125/121/61 109/115/61
f 106/146/62 19/143/62 111/122/62 125/121/62
f 110/120/63 105/119/63 108/147/63
f 105/119/64 16/141/64 108/147/64
f 95/126/2 110/120/2 108/147/2 93/148/2
f 108/147/2 126/114/2 101/117/2 93/148/2
f 16/141/65 104/145/65 126/114/65 108/147/65
f 104/145/66 13/144/66 109/115/66 126/114/66
f 117/135/67 127/32/67 114/35/67 100/136/67
f 19/143/68 106/146/68 127/32/68 117/135/68
f 106/146/69 13/144/69 116/33/69 127/32/69
f 101/117/13 94/116/13 129/38/13 128/37/13
f 95/126/13 93/148/13 131/36/13 130/39/13
f 102/124/13 96/123/13 133/41/13 132/40/13
f 103/127/13 95/126/13 130/39/13 134/42/13
f 93/148/13 101/117/13 128/37/13 131/36/13
f 94/116/13 102/124/13 132/40/13 129/38/13
f 96/123/13 103/127/13 134/42/13 133/41/13
